<svg width="124" height="28" viewBox="0 0 124 28" fill="none" xmlns="http://www.w3.org/2000/svg">
<g clip-path="url(#clip0_2281_534)">
<g clip-path="url(#clip1_2281_534)">
<g clip-path="url(#clip2_2281_534)">
<path d="M21 0.4375H7C3.37563 0.4375 0.4375 3.37563 0.4375 7V21C0.4375 24.6244 3.37563 27.5625 7 27.5625H21C24.6244 27.5625 27.5625 24.6244 27.5625 21V7C27.5625 3.37563 24.6244 0.4375 21 0.4375Z" fill="#D0FAE5"/>
<path d="M21 0.4375H7C3.37563 0.4375 0.4375 3.37563 0.4375 7V21C0.4375 24.6244 3.37563 27.5625 7 27.5625H21C24.6244 27.5625 27.5625 24.6244 27.5625 21V7C27.5625 3.37563 24.6244 0.4375 21 0.4375Z" stroke="#A4F4CF" stroke-width="0.875"/>
<path d="M19.9445 10.5675V17.4317L13.9999 20.8641L8.05518 17.4317V10.5675L13.9999 7.13501L19.9445 10.5675Z" stroke="#007A55" stroke-width="1.75"/>
</g>
</g>
</g>
<path d="M119.311 19V11.3636H121.111V19H119.311ZM120.216 10.2798C119.931 10.2798 119.686 10.1854 119.48 9.99644C119.275 9.80421 119.172 9.57386 119.172 9.30539C119.172 9.03361 119.275 8.80326 119.48 8.61434C119.686 8.42211 119.931 8.32599 120.216 8.32599C120.505 8.32599 120.75 8.42211 120.952 8.61434C121.157 8.80326 121.26 9.03361 121.26 9.30539C121.26 9.57386 121.157 9.80421 120.952 9.99644C120.75 10.1854 120.505 10.2798 120.216 10.2798Z" fill="#1D2025"/>
<path d="M113.47 19.1541C112.986 19.1541 112.55 19.0679 112.162 18.8956C111.778 18.7199 111.473 18.4614 111.247 18.12C111.025 17.7786 110.914 17.3577 110.914 16.8572C110.914 16.4264 110.994 16.0701 111.153 15.7883C111.312 15.5066 111.529 15.2812 111.804 15.1122C112.079 14.9432 112.389 14.8156 112.734 14.7294C113.082 14.6399 113.442 14.5753 113.813 14.5355C114.26 14.4891 114.623 14.4477 114.902 14.4112C115.18 14.3714 115.382 14.3118 115.508 14.2322C115.637 14.1494 115.702 14.0218 115.702 13.8494V13.8196C115.702 13.4451 115.591 13.1551 115.369 12.9496C115.147 12.7441 114.827 12.6413 114.409 12.6413C113.969 12.6413 113.619 12.7374 113.36 12.9297C113.105 13.1219 112.933 13.3489 112.843 13.6108L111.163 13.3721C111.295 12.9081 111.514 12.5203 111.819 12.2088C112.124 11.8939 112.497 11.6586 112.938 11.5028C113.379 11.3437 113.866 11.2642 114.399 11.2642C114.767 11.2642 115.134 11.3073 115.498 11.3935C115.863 11.4796 116.196 11.6221 116.497 11.821C116.799 12.0166 117.041 12.2834 117.223 12.6214C117.409 12.9595 117.502 13.3821 117.502 13.8892V19H115.772V17.951H115.712C115.603 18.1631 115.448 18.362 115.25 18.5476C115.054 18.7299 114.807 18.8774 114.509 18.99C114.214 19.0994 113.867 19.1541 113.47 19.1541ZM113.937 17.8317C114.298 17.8317 114.612 17.7604 114.877 17.6179C115.142 17.4721 115.346 17.2798 115.488 17.0412C115.634 16.8025 115.707 16.5424 115.707 16.2606V15.3608C115.651 15.4072 115.554 15.4503 115.419 15.49C115.286 15.5298 115.137 15.5646 114.971 15.5944C114.805 15.6243 114.641 15.6508 114.479 15.674C114.317 15.6972 114.176 15.7171 114.056 15.7337C113.788 15.7701 113.548 15.8298 113.335 15.9126C113.123 15.9955 112.956 16.1115 112.833 16.2606C112.711 16.4065 112.649 16.5954 112.649 16.8274C112.649 17.1588 112.77 17.4091 113.012 17.5781C113.254 17.7471 113.563 17.8317 113.937 17.8317Z" fill="#1D2025"/>
<path d="M108.32 19.1094C108.019 19.1094 107.76 19.0033 107.545 18.7912C107.329 18.5791 107.223 18.3206 107.227 18.0156C107.223 17.7173 107.329 17.4621 107.545 17.25C107.76 17.0379 108.019 16.9318 108.32 16.9318C108.612 16.9318 108.866 17.0379 109.081 17.25C109.3 17.4621 109.411 17.7173 109.414 18.0156C109.411 18.2178 109.358 18.4018 109.255 18.5675C109.156 18.7332 109.023 18.8658 108.857 18.9652C108.695 19.0613 108.516 19.1094 108.32 19.1094Z" fill="#1D2025"/>
<path d="M105.564 13.3821L103.923 13.5611C103.877 13.3953 103.796 13.2396 103.68 13.0937C103.567 12.9479 103.414 12.8302 103.222 12.7408C103.03 12.6513 102.795 12.6065 102.516 12.6065C102.142 12.6065 101.827 12.6877 101.572 12.8501C101.32 13.0125 101.195 13.223 101.199 13.4815C101.195 13.7036 101.277 13.8842 101.442 14.0234C101.611 14.1626 101.89 14.277 102.278 14.3665L103.58 14.6449C104.303 14.8006 104.84 15.0476 105.191 15.3856C105.546 15.7237 105.725 16.1662 105.728 16.7131C105.725 17.1936 105.584 17.6179 105.305 17.9858C105.03 18.3504 104.647 18.6354 104.157 18.8409C103.666 19.0464 103.103 19.1491 102.466 19.1491C101.532 19.1491 100.779 18.9536 100.209 18.5625C99.6393 18.1681 99.2996 17.6195 99.1902 16.9169L100.945 16.7479C101.025 17.0926 101.194 17.3527 101.452 17.5284C101.711 17.7041 102.047 17.7919 102.461 17.7919C102.889 17.7919 103.232 17.7041 103.491 17.5284C103.752 17.3527 103.883 17.1356 103.883 16.8771C103.883 16.6584 103.799 16.4777 103.63 16.3352C103.464 16.1927 103.206 16.0833 102.854 16.0071L101.552 15.7337C100.819 15.5812 100.277 15.3243 99.926 14.9631C99.5747 14.5985 99.4007 14.1378 99.404 13.581C99.4007 13.1103 99.5283 12.7026 99.7868 12.3579C100.049 12.0099 100.412 11.7415 100.876 11.5525C101.343 11.3603 101.881 11.2642 102.491 11.2642C103.386 11.2642 104.091 11.4548 104.604 11.8359C105.121 12.2171 105.441 12.7325 105.564 13.3821Z" fill="#1D2025"/>
<path d="M90.7893 19V8.81818H92.589V12.6264H92.6636C92.7564 12.4408 92.8873 12.2436 93.0564 12.0348C93.2254 11.8227 93.4541 11.642 93.7424 11.4929C94.0308 11.3404 94.3987 11.2642 94.8461 11.2642C95.4361 11.2642 95.968 11.415 96.442 11.7166C96.9193 12.0149 97.2971 12.4574 97.5755 13.044C97.8573 13.6274 97.9981 14.3433 97.9981 15.1918C97.9981 16.0303 97.8606 16.7429 97.5855 17.3295C97.3104 17.9162 96.9358 18.3636 96.4619 18.6719C95.9879 18.9801 95.451 19.1342 94.8511 19.1342C94.4136 19.1342 94.0507 19.0613 93.7623 18.9155C93.474 18.7696 93.242 18.594 93.0663 18.3885C92.8939 18.1797 92.7597 17.9825 92.6636 17.7969H92.5592V19H90.7893ZM92.5542 15.1818C92.5542 15.6757 92.6238 16.1082 92.763 16.4794C92.9055 16.8506 93.1094 17.1406 93.3745 17.3494C93.643 17.5549 93.9678 17.6577 94.349 17.6577C94.7467 17.6577 95.0798 17.5516 95.3483 17.3395C95.6167 17.124 95.8189 16.8307 95.9548 16.4595C96.094 16.085 96.1636 15.6591 96.1636 15.1818C96.1636 14.7079 96.0957 14.2869 95.9598 13.919C95.8239 13.5511 95.6217 13.2628 95.3532 13.054C95.0848 12.8452 94.75 12.7408 94.349 12.7408C93.9645 12.7408 93.638 12.8419 93.3696 13.044C93.1011 13.2462 92.8973 13.5296 92.7581 13.8942C92.6222 14.2588 92.5542 14.688 92.5542 15.1818Z" fill="#1D2025"/>
<path d="M84.8681 19.1541C84.3842 19.1541 83.9484 19.0679 83.5606 18.8956C83.1761 18.7199 82.8712 18.4614 82.6458 18.12C82.4238 17.7786 82.3127 17.3577 82.3127 16.8572C82.3127 16.4264 82.3923 16.0701 82.5514 15.7883C82.7105 15.5066 82.9276 15.2812 83.2027 15.1122C83.4778 14.9432 83.7877 14.8156 84.1323 14.7294C84.4804 14.6399 84.84 14.5753 85.2112 14.5355C85.6586 14.4891 86.0216 14.4477 86.3 14.4112C86.5784 14.3714 86.7805 14.3118 86.9065 14.2322C87.0358 14.1494 87.1004 14.0218 87.1004 13.8494V13.8196C87.1004 13.4451 86.9894 13.1551 86.7673 12.9496C86.5452 12.7441 86.2254 12.6413 85.8078 12.6413C85.367 12.6413 85.0173 12.7374 84.7588 12.9297C84.5036 13.1219 84.3312 13.3489 84.2417 13.6108L82.5613 13.3721C82.6939 12.9081 82.9127 12.5203 83.2176 12.2088C83.5225 11.8939 83.8954 11.6586 84.3362 11.5028C84.777 11.3437 85.2642 11.2642 85.7978 11.2642C86.1657 11.2642 86.532 11.3073 86.8966 11.3935C87.2611 11.4796 87.5942 11.6221 87.8958 11.821C88.1974 12.0166 88.4394 12.2834 88.6217 12.6214C88.8073 12.9595 88.9001 13.3821 88.9001 13.8892V19H87.17V17.951H87.1103C87.001 18.1631 86.8468 18.362 86.648 18.5476C86.4524 18.7299 86.2055 18.8774 85.9072 18.99C85.6122 19.0994 85.2659 19.1541 84.8681 19.1541ZM85.3355 17.8317C85.6967 17.8317 86.0099 17.7604 86.2751 17.6179C86.5403 17.4721 86.7441 17.2798 86.8866 17.0412C87.0324 16.8025 87.1054 16.5424 87.1054 16.2606V15.3608C87.049 15.4072 86.9529 15.4503 86.817 15.49C86.6844 15.5298 86.5353 15.5646 86.3696 15.5944C86.2038 15.6243 86.0398 15.6508 85.8774 15.674C85.715 15.6972 85.5741 15.7171 85.4548 15.7337C85.1863 15.7701 84.946 15.8298 84.7339 15.9126C84.5218 15.9955 84.3544 16.1115 84.2318 16.2606C84.1091 16.4065 84.0478 16.5954 84.0478 16.8274C84.0478 17.1588 84.1688 17.4091 84.4108 17.5781C84.6527 17.7471 84.9609 17.8317 85.3355 17.8317Z" fill="#1D2025"/>
<path d="M80.8202 8.81818V19H79.0205V8.81818H80.8202Z" fill="#1D2025"/>
<path d="M73.0359 19.1342C72.436 19.1342 71.8991 18.9801 71.4251 18.6719C70.9512 18.3636 70.5767 17.9162 70.3016 17.3295C70.0265 16.7429 69.8889 16.0303 69.8889 15.1918C69.8889 14.3433 70.0281 13.6274 70.3065 13.044C70.5882 12.4574 70.9677 12.0149 71.445 11.7166C71.9223 11.415 72.4543 11.2642 73.0409 11.2642C73.4883 11.2642 73.8562 11.3404 74.1446 11.4929C74.4329 11.642 74.6616 11.8227 74.8307 12.0348C74.9997 12.2436 75.1306 12.4408 75.2234 12.6264H75.298V8.81818H77.1027V19H75.3328V17.7969H75.2234C75.1306 17.9825 74.9964 18.1797 74.8207 18.3885C74.6451 18.594 74.4131 18.7696 74.1247 18.9155C73.8364 19.0613 73.4734 19.1342 73.0359 19.1342ZM73.5381 17.6577C73.9192 17.6577 74.244 17.5549 74.5125 17.3494C74.781 17.1406 74.9848 16.8506 75.124 16.4794C75.2632 16.1082 75.3328 15.6757 75.3328 15.1818C75.3328 14.688 75.2632 14.2588 75.124 13.8942C74.9881 13.5296 74.7859 13.2462 74.5175 13.044C74.2523 12.8419 73.9258 12.7408 73.5381 12.7408C73.137 12.7408 72.8023 12.8452 72.5338 13.054C72.2653 13.2628 72.0632 13.5511 71.9273 13.919C71.7914 14.2869 71.7234 14.7079 71.7234 15.1818C71.7234 15.6591 71.7914 16.085 71.9273 16.4595C72.0665 16.8307 72.2703 17.124 72.5388 17.3395C72.8106 17.5516 73.1437 17.6577 73.5381 17.6577Z" fill="#1D2025"/>
<path d="M68.3515 8.81818V19H66.5518V8.81818H68.3515Z" fill="#1D2025"/>
<path d="M61.6336 19.1491C60.868 19.1491 60.2068 18.99 59.6499 18.6719C59.0964 18.3504 58.6705 17.8963 58.3722 17.3096C58.074 16.7197 57.9248 16.0253 57.9248 15.2265C57.9248 14.441 58.074 13.7516 58.3722 13.1584C58.6739 12.5618 59.0948 12.0978 59.635 11.7663C60.1753 11.4316 60.81 11.2642 61.5392 11.2642C62.0098 11.2642 62.4539 11.3404 62.8715 11.4929C63.2925 11.642 63.6637 11.874 63.9852 12.1889C64.31 12.5038 64.5652 12.9048 64.7508 13.392C64.9364 13.8759 65.0292 14.4526 65.0292 15.1221V15.674H58.77V14.4609H63.3041C63.3008 14.1162 63.2262 13.8096 63.0803 13.5412C62.9345 13.2694 62.7307 13.0556 62.4688 12.8998C62.2103 12.7441 61.9087 12.6662 61.564 12.6662C61.1961 12.6662 60.873 12.7557 60.5945 12.9346C60.3161 13.1103 60.099 13.3423 59.9433 13.6307C59.7908 13.9157 59.7129 14.2289 59.7096 14.5703V15.6292C59.7096 16.0734 59.7908 16.4545 59.9532 16.7727C60.1156 17.0876 60.3427 17.3295 60.6343 17.4986C60.926 17.6643 61.2674 17.7471 61.6585 17.7471C61.9203 17.7471 62.1573 17.7107 62.3694 17.6378C62.5815 17.5615 62.7655 17.4505 62.9213 17.3047C63.077 17.1588 63.1947 16.9782 63.2742 16.7628L64.9546 16.9517C64.8486 17.3958 64.6464 17.7836 64.3481 18.115C64.0531 18.4432 63.6753 18.6984 63.2146 18.8807C62.7539 19.0596 62.2269 19.1491 61.6336 19.1491Z" fill="#1D2025"/>
<path d="M54.6023 19V11.3636H56.4021V19H54.6023ZM55.5072 10.2798C55.2221 10.2798 54.9769 10.1854 54.7714 9.99644C54.5659 9.80421 54.4631 9.57386 54.4631 9.30539C54.4631 9.03361 54.5659 8.80326 54.7714 8.61434C54.9769 8.42211 55.2221 8.32599 55.5072 8.32599C55.7955 8.32599 56.0408 8.42211 56.243 8.61434C56.4485 8.80326 56.5512 9.03361 56.5512 9.30539C56.5512 9.57386 56.4485 9.80421 56.243 9.99644C56.0408 10.1854 55.7955 10.2798 55.5072 10.2798Z" fill="#1D2025"/>
<path d="M47.8163 14.5256V19H46.0166V8.81818H47.7765V12.6612H47.866C48.045 12.2303 48.3218 11.8906 48.6963 11.642C49.0741 11.3901 49.5547 11.2642 50.1381 11.2642C50.6684 11.2642 51.1307 11.3752 51.5251 11.5973C51.9195 11.8194 52.2245 12.1442 52.4399 12.5717C52.6586 12.9993 52.768 13.5213 52.768 14.1378V19H50.9683V14.4162C50.9683 13.9025 50.8357 13.5031 50.5706 13.218C50.3087 12.9297 49.9408 12.7855 49.4669 12.7855C49.1487 12.7855 48.8637 12.8551 48.6118 12.9943C48.3632 13.1302 48.1676 13.3274 48.0251 13.5859C47.8859 13.8445 47.8163 14.1577 47.8163 14.5256Z" fill="#1D2025"/>
<path d="M42.5378 11.6172C42.4914 11.183 42.2958 10.8449 41.9511 10.603C41.6097 10.361 41.1656 10.2401 40.6187 10.2401C40.2342 10.2401 39.9045 10.2981 39.6294 10.4141C39.3543 10.5301 39.1438 10.6875 38.998 10.8864C38.8521 11.0852 38.7776 11.3123 38.7743 11.5675C38.7743 11.7796 38.8223 11.9636 38.9184 12.1193C39.0179 12.2751 39.1521 12.4077 39.3211 12.5171C39.4902 12.6231 39.6774 12.7126 39.8829 12.7855C40.0884 12.8584 40.2956 12.9198 40.5044 12.9695L41.4589 13.2081C41.8434 13.2976 42.2129 13.4186 42.5676 13.571C42.9255 13.7235 43.2454 13.9157 43.5271 14.1477C43.8121 14.3797 44.0375 14.6598 44.2032 14.9879C44.369 15.3161 44.4518 15.7005 44.4518 16.1413C44.4518 16.7379 44.2994 17.2633 43.9944 17.7173C43.6895 18.1681 43.2487 18.5211 42.672 18.7763C42.0986 19.0282 41.4042 19.1541 40.5889 19.1541C39.7967 19.1541 39.109 19.0315 38.5257 18.7862C37.9457 18.541 37.4916 18.183 37.1635 17.7124C36.8387 17.2417 36.663 16.6683 36.6365 15.9922H38.4511C38.4776 16.3468 38.587 16.6418 38.7792 16.8771C38.9715 17.1125 39.2217 17.2881 39.5299 17.4041C39.8415 17.5201 40.1895 17.5781 40.574 17.5781C40.975 17.5781 41.3263 17.5185 41.628 17.3992C41.9329 17.2765 42.1715 17.1075 42.3439 16.8921C42.5162 16.6733 42.604 16.4181 42.6074 16.1264C42.604 15.8613 42.5262 15.6425 42.3737 15.4702C42.2212 15.2945 42.0075 15.1487 41.7324 15.0327C41.4606 14.9134 41.1424 14.8073 40.7778 14.7145L39.6194 14.4162C38.7809 14.2008 38.118 13.8743 37.6308 13.4368C37.1469 12.996 36.9049 12.411 36.9049 11.6818C36.9049 11.0819 37.0673 10.5566 37.3922 10.1058C37.7203 9.65507 38.1661 9.30541 38.7295 9.05683C39.293 8.80493 39.931 8.67899 40.6436 8.67899C41.3661 8.67899 41.9992 8.80493 42.5427 9.05683C43.0896 9.30541 43.5188 9.65176 43.8304 10.0959C44.1419 10.5367 44.3027 11.0438 44.3126 11.6172H42.5378Z" fill="#1D2025"/>
<defs>
<clipPath id="clip0_2281_534">
<rect width="28" height="28" fill="white"/>
</clipPath>
<clipPath id="clip1_2281_534">
<rect width="28" height="28" fill="white"/>
</clipPath>
<clipPath id="clip2_2281_534">
<rect width="28" height="28" fill="white"/>
</clipPath>
</defs>
</svg>
